<svg xmlns="http://www.w3.org/2000/svg" version="1.0" width="512.000000pt" height="512.000000pt" viewBox="0 0 512.000000 512.000000" preserveAspectRatio="xMidYMid meet">

<g transform="translate(0.000000,512.000000) scale(0.100000,-0.100000)" fill="#4c4c4c" stroke="none">
<path d="M2550 4815 c0 -56 -24 -216 -51 -343 -73 -341 -270 -741 -504 -1021 -392 -471 -932 -774 -1544 -866 -56 -8 -122 -16 -148 -16 -41 -1 -37 -3 27 -11 402 -47 610 -104 898 -245 464 -228 857 -621 1085 -1085 141 -288 198 -496 245 -898 8 -64 10 -68 11 -27 1 62 26 224 52 345 73 341 270 741 504 1021 392 471 932 774 1544 866 56 8 121 15 146 15 25 0 45 5 45 10 0 6 -20 10 -45 10 -56 0 -216 24 -343 51 -341 73 -741 270 -1021 504 -471 392 -774 932 -866 1544 -8 56 -15 121 -15 146 0 25 -4 45 -10 45 -5 0 -10 -20 -10 -45z"/>
</g>
</svg>